<svg version="1.1" id="Layer_1" xmlns="http://www.w3.org/2000/svg" xmlns:xlink="http://www.w3.org/1999/xlink" x="0px" y="0px"
     width="100%" viewBox="0 0 1024 1024" enable-background="new 0 0 1024 1024" xml:space="preserve">

<!-- Square black background -->
<rect x="0" y="0" width="1024" height="1024" fill="#000000"/>

<!-- White shapes (same as before) -->
<path fill="#FFFFFF" opacity="1.000000" stroke="none" 
    d="
M348.584839,438.225464 
    C351.475861,429.695923 354.999176,421.448456 359.040436,413.387482 
    C391.878784,347.885681 461.088715,313.545166 531.487549,323.167908 
    C580.399353,329.853577 620.287659,353.149292 649.447327,393.651733 
    C653.184265,398.842255 653.628601,398.924072 658.789612,394.796082 
    C669.067688,386.575165 679.317993,378.319031 689.530334,370.016632 
    C696.112732,364.665314 696.081482,364.610779 690.875061,357.661560 
    C670.689636,330.719055 645.920044,309.122345 616.157471,293.260681 
    C572.472107,269.978943 525.863281,262.635651 477.210083,269.073639 
    C417.336578,276.996368 368.429535,305.121887 332.460602,353.668976 
    C295.659393,403.339417 281.118378,459.505737 289.045624,521.028076 
    C294.970764,567.012329 314.066010,607.018860 345.084503,641.425720 
    C347.619995,644.238159 349.474854,644.570312 352.493958,642.064209 
    C362.748413,633.552246 373.225647,625.309143 383.587463,616.925781 
    C390.010986,611.728760 389.929840,611.748535 384.431549,605.561279 
    C341.116516,556.818054 330.956573,500.880188 348.584839,438.225464 
z"/>

<path fill="#FFFFFF" opacity="1.000000" stroke="none" 
    d="
M654.505005,658.994995 
    C628.469421,632.968567 602.442688,606.933411 576.381836,580.932312 
    C574.266907,578.822205 572.091248,576.696899 569.649109,575.003784 
    C558.519531,567.287842 543.315430,570.243896 537.471313,581.122498 
    C533.118042,589.225952 534.540649,598.948425 541.427429,605.942932 
    C552.295776,616.981201 563.330383,627.855652 574.250977,638.842773 
    C575.604248,640.204285 577.490295,641.283630 577.577393,643.551880 
    C576.640381,645.203369 574.929443,645.600220 573.428284,646.222412 
    C543.602112,658.587708 512.653198,661.423096 480.909637,656.778259 
    C456.136871,653.153503 433.429413,644.119263 412.688019,630.077148 
    C407.116577,626.305176 404.173523,626.918152 401.058533,632.635071 
    C395.098511,643.573242 386.230804,651.698242 376.265717,658.748535 
    C370.168030,663.062744 369.824127,664.427307 375.694733,668.806213 
    C390.585480,679.913452 406.689911,688.932129 423.986755,695.723633 
    C458.601105,709.314514 494.501251,713.448853 531.395142,710.023682 
    C559.658569,707.399719 586.207397,699.142212 610.860779,685.147949 
    C615.455261,682.539856 617.949036,683.145447 621.439697,686.715759 
    C637.042053,702.673950 652.867615,718.415833 668.734009,734.113037 
    C678.213135,743.490906 691.538513,743.200989 700.794556,733.679993 
    C709.444763,724.782166 708.810120,713.191772 699.211182,703.630188 
    C684.458923,688.935364 669.738586,674.208557 654.505005,658.994995 
z"/>

<path fill="#FFFFFF" opacity="1.000000" stroke="none" 
    d="
M675.721985,528.008118 
    C671.169800,549.502014 662.154236,569.041504 649.519897,586.910156 
    C647.001587,590.471741 647.034058,592.835754 650.201233,595.865479 
    C659.709595,604.961060 668.950806,614.335144 678.391296,623.502686 
    C683.504150,628.467773 683.863464,628.427368 688.192810,622.641602 
    C713.937927,588.235779 729.383240,549.876221 733.130676,506.866180 
    C736.258423,470.968933 730.836487,436.477814 717.183655,403.238373 
    C714.597412,396.941772 712.117615,390.525940 708.144226,384.896271 
    C705.602356,381.294891 702.457642,380.973022 699.404968,384.126678 
    C698.044312,385.532410 697.080750,387.351959 696.073059,389.063782 
    C694.218262,392.214722 692.685486,395.577423 690.619446,398.576935 
    C686.928772,403.935181 681.421814,406.264740 675.230347,407.916504 
    C665.521240,410.506744 662.821411,416.132538 666.478638,425.012665 
    C680.110352,458.112335 683.475891,492.144531 675.721985,528.008118 
z"/>
</svg>
